<svg xmlns="http://www.w3.org/2000/svg" xmlns:xlink="http://www.w3.org/1999/xlink" width="300" zoomAndPan="magnify" viewBox="0 0 224.87999 30.000001" height="40" preserveAspectRatio="xMidYMid meet" version="1.0"><defs><g/><clipPath id="be94f53d73"><path d="M 57 15 L 78 15 L 78 29.03125 L 57 29.03125 Z M 57 15 " clip-rule="nonzero"/></clipPath><clipPath id="cc3a9c115d"><path d="M 48.683594 0 L 82.796875 0 L 82.796875 22 L 48.683594 22 Z M 48.683594 0 " clip-rule="nonzero"/></clipPath><clipPath id="dadd4948bf"><path d="M 54.230469 2.238281 L 77.457031 2.238281 L 77.457031 29.03125 L 54.230469 29.03125 Z M 54.230469 2.238281 " clip-rule="nonzero"/></clipPath></defs><g clip-path="url(#be94f53d73)"><path fill="#588bf9" d="M 62.667969 20.523438 C 61.054688 20.523438 59.488281 20.398438 57.992188 20.15625 C 58.339844 20.738281 58.714844 21.308594 59.109375 21.863281 C 61.152344 24.730469 63.789062 27.1875 66.898438 29.035156 C 72.066406 25.96875 75.921875 21.210938 77.925781 15.707031 C 74.417969 18.636719 68.886719 20.523438 62.667969 20.523438 " fill-opacity="1" fill-rule="nonzero"/></g><path fill="#588bf9" d="M 64.261719 21.273438 C 63.132812 21.273438 62.035156 21.1875 60.988281 21.019531 C 61.234375 21.425781 61.492188 21.824219 61.769531 22.210938 C 63.199219 24.214844 65.042969 25.9375 67.21875 27.226562 C 70.832031 25.082031 73.527344 21.757812 74.929688 17.90625 C 72.476562 19.953125 68.609375 21.273438 64.261719 21.273438 " fill-opacity="1" fill-rule="nonzero"/><g clip-path="url(#cc3a9c115d)"><path fill="#588bf9" d="M 76.34375 0 C 79.046875 2.113281 80.667969 4.8125 80.667969 7.753906 C 80.667969 14.527344 72.070312 20.019531 61.460938 20.019531 C 56.558594 20.019531 52.085938 18.847656 48.691406 16.917969 C 52.214844 19.671875 57.574219 21.429688 63.574219 21.429688 C 74.179688 21.429688 82.777344 15.9375 82.777344 9.164062 C 82.777344 5.519531 80.292969 2.25 76.34375 0 " fill-opacity="1" fill-rule="nonzero"/></g><path fill="#588bf9" d="M 60.558594 19.117188 C 69.816406 19.117188 77.542969 14.933594 79.359375 9.363281 C 79.425781 8.667969 79.460938 7.964844 79.46875 7.257812 L 74.808594 4.566406 L 66.898438 0 L 54.328125 7.257812 C 54.375 11.390625 55.429688 15.386719 57.304688 18.941406 C 58.363281 19.054688 59.449219 19.117188 60.558594 19.117188 " fill-opacity="1" fill-rule="nonzero"/><path fill="#588bf9" d="M 61.917969 17.90625 C 69.191406 17.90625 75.261719 14.621094 76.6875 10.246094 C 76.738281 9.699219 76.769531 9.148438 76.773438 8.59375 L 73.113281 6.480469 L 66.898438 2.890625 L 57.023438 8.59375 C 57.0625 11.839844 57.886719 14.980469 59.363281 17.769531 C 60.191406 17.859375 61.046875 17.90625 61.917969 17.90625 " fill-opacity="1" fill-rule="nonzero"/><g clip-path="url(#dadd4948bf)"><path fill="#ffffff" d="M 63.65625 6.894531 C 63.65625 8.644531 64.925781 10.0625 66.488281 10.0625 C 68.046875 10.0625 69.316406 8.644531 69.316406 6.894531 C 69.316406 5.144531 68.046875 3.726562 66.488281 3.726562 C 64.925781 3.726562 63.65625 5.144531 63.65625 6.894531 Z M 56.789062 18.148438 C 56.820312 16.382812 59.605469 13.921875 60.835938 13.222656 C 63.019531 12.003906 65.472656 12.472656 67.769531 11.617188 C 69.855469 10.835938 71.410156 9.390625 72.941406 7.945312 C 73.828125 7.101562 76.09375 3.75 76.207031 2.238281 L 76.363281 2.238281 L 76.460938 3.027344 L 76.445312 3.554688 C 76.445312 8.777344 69.570312 15.46875 69.570312 17.796875 L 69.570312 18.324219 C 69.570312 19.066406 70.390625 19.652344 71.074219 19.652344 L 71.3125 19.652344 C 73.097656 19.652344 77.152344 16.796875 77.152344 19.738281 C 77.152344 21.949219 74.527344 27.824219 73.601562 29.023438 L 74.054688 25.140625 L 73.992188 24.160156 C 73.992188 22.78125 72.835938 21.949219 71.628906 21.949219 C 67.230469 21.949219 62.554688 28.402344 56.464844 28.402344 L 55.363281 28.402344 L 54.246094 28.242188 L 54.257812 28.132812 C 55.84375 28.101562 59.957031 25.445312 60.949219 24.496094 C 62.402344 23.089844 64.761719 20.585938 64.761719 17.703125 C 64.761719 15.339844 62.777344 14.734375 60.753906 15.25 C 59.882812 15.46875 59.167969 15.921875 58.492188 16.433594 C 57.78125 16.964844 57.300781 17.761719 56.789062 18.148438 " fill-opacity="1" fill-rule="evenodd"/></g><g fill="#000000" fill-opacity="1"><g transform="translate(86.947798, 23.5898)"><g><path d="M 7.765625 0.125 C 6.460938 0.125 5.222656 -0.0976562 4.046875 -0.546875 C 2.867188 -0.992188 1.953125 -1.570312 1.296875 -2.28125 L 1.875 -3.25 C 2.5 -2.59375 3.34375 -2.054688 4.40625 -1.640625 C 5.46875 -1.222656 6.582031 -1.015625 7.75 -1.015625 C 9.4375 -1.015625 10.710938 -1.335938 11.578125 -1.984375 C 12.441406 -2.628906 12.875 -3.46875 12.875 -4.5 C 12.875 -5.289062 12.644531 -5.921875 12.1875 -6.390625 C 11.726562 -6.867188 11.160156 -7.234375 10.484375 -7.484375 C 9.804688 -7.742188 8.894531 -8.007812 7.75 -8.28125 C 6.445312 -8.601562 5.398438 -8.914062 4.609375 -9.21875 C 3.816406 -9.519531 3.144531 -9.988281 2.59375 -10.625 C 2.050781 -11.257812 1.78125 -12.109375 1.78125 -13.171875 C 1.78125 -14.035156 2.007812 -14.828125 2.46875 -15.546875 C 2.925781 -16.265625 3.625 -16.835938 4.5625 -17.265625 C 5.5 -17.691406 6.671875 -17.90625 8.078125 -17.90625 C 9.054688 -17.90625 10.019531 -17.757812 10.96875 -17.46875 C 11.914062 -17.175781 12.738281 -16.785156 13.4375 -16.296875 L 12.953125 -15.265625 C 12.242188 -15.753906 11.457031 -16.125 10.59375 -16.375 C 9.738281 -16.632812 8.898438 -16.765625 8.078125 -16.765625 C 6.429688 -16.765625 5.1875 -16.429688 4.34375 -15.765625 C 3.5 -15.109375 3.078125 -14.253906 3.078125 -13.203125 C 3.078125 -12.410156 3.300781 -11.773438 3.75 -11.296875 C 4.207031 -10.828125 4.773438 -10.460938 5.453125 -10.203125 C 6.128906 -9.953125 7.054688 -9.679688 8.234375 -9.390625 C 9.535156 -9.066406 10.570312 -8.753906 11.34375 -8.453125 C 12.125 -8.148438 12.789062 -7.6875 13.34375 -7.0625 C 13.894531 -6.445312 14.171875 -5.617188 14.171875 -4.578125 C 14.171875 -3.710938 13.9375 -2.921875 13.46875 -2.203125 C 13 -1.492188 12.28125 -0.925781 11.3125 -0.5 C 10.351562 -0.0820312 9.171875 0.125 7.765625 0.125 Z M 7.765625 0.125 "/></g></g></g><g fill="#000000" fill-opacity="1"><g transform="translate(102.404598, 23.5898)"><g><path d="M 7.421875 -7.078125 L 3.96875 -3.9375 L 3.96875 0 L 2.6875 0 L 2.6875 -18.84375 L 3.96875 -18.84375 L 3.96875 -5.515625 L 12.4375 -13.25 L 14.0625 -13.25 L 8.359375 -7.890625 L 14.625 0 L 13.046875 0 Z M 7.421875 -7.078125 "/></g></g></g><g fill="#000000" fill-opacity="1"><g transform="translate(117.328406, 23.5898)"><g><path d="M 2.6875 -13.25 L 3.96875 -13.25 L 3.96875 0 L 2.6875 0 Z M 3.3125 -16.484375 C 3.03125 -16.484375 2.785156 -16.578125 2.578125 -16.765625 C 2.378906 -16.960938 2.28125 -17.207031 2.28125 -17.5 C 2.28125 -17.78125 2.378906 -18.019531 2.578125 -18.21875 C 2.785156 -18.425781 3.03125 -18.53125 3.3125 -18.53125 C 3.601562 -18.53125 3.847656 -18.429688 4.046875 -18.234375 C 4.253906 -18.046875 4.359375 -17.804688 4.359375 -17.515625 C 4.359375 -17.234375 4.253906 -16.988281 4.046875 -16.78125 C 3.847656 -16.582031 3.601562 -16.484375 3.3125 -16.484375 Z M 3.3125 -16.484375 "/></g></g></g><g fill="#000000" fill-opacity="1"><g transform="translate(123.952752, 23.5898)"><g><path d="M 9.171875 -13.359375 C 10.828125 -13.359375 12.132812 -12.875 13.09375 -11.90625 C 14.0625 -10.945312 14.546875 -9.5625 14.546875 -7.75 L 14.546875 0 L 13.28125 0 L 13.28125 -7.640625 C 13.28125 -9.128906 12.898438 -10.265625 12.140625 -11.046875 C 11.390625 -11.828125 10.335938 -12.21875 8.984375 -12.21875 C 7.429688 -12.21875 6.207031 -11.75 5.3125 -10.8125 C 4.414062 -9.882812 3.96875 -8.632812 3.96875 -7.0625 L 3.96875 0 L 2.6875 0 L 2.6875 -13.25 L 3.90625 -13.25 L 3.90625 -10.390625 C 4.363281 -11.316406 5.046875 -12.039062 5.953125 -12.5625 C 6.859375 -13.09375 7.929688 -13.359375 9.171875 -13.359375 Z M 9.171875 -13.359375 "/></g></g></g><g fill="#000000" fill-opacity="1"><g transform="translate(141.033911, 23.5898)"><g><path d="M 15.796875 -8.8125 L 17.03125 -8.8125 L 17.03125 -2.15625 C 16.257812 -1.414062 15.316406 -0.847656 14.203125 -0.453125 C 13.097656 -0.0664062 11.925781 0.125 10.6875 0.125 C 8.925781 0.125 7.335938 -0.257812 5.921875 -1.03125 C 4.515625 -1.8125 3.40625 -2.890625 2.59375 -4.265625 C 1.789062 -5.640625 1.390625 -7.179688 1.390625 -8.890625 C 1.390625 -10.597656 1.789062 -12.132812 2.59375 -13.5 C 3.40625 -14.875 4.515625 -15.953125 5.921875 -16.734375 C 7.335938 -17.515625 8.9375 -17.90625 10.71875 -17.90625 C 12.019531 -17.90625 13.21875 -17.695312 14.3125 -17.28125 C 15.40625 -16.863281 16.335938 -16.257812 17.109375 -15.46875 L 16.296875 -14.59375 C 15.554688 -15.34375 14.722656 -15.878906 13.796875 -16.203125 C 12.878906 -16.535156 11.859375 -16.703125 10.734375 -16.703125 C 9.210938 -16.703125 7.835938 -16.363281 6.609375 -15.6875 C 5.390625 -15.007812 4.429688 -14.070312 3.734375 -12.875 C 3.035156 -11.6875 2.6875 -10.359375 2.6875 -8.890625 C 2.6875 -7.429688 3.035156 -6.101562 3.734375 -4.90625 C 4.441406 -3.71875 5.40625 -2.78125 6.625 -2.09375 C 7.84375 -1.40625 9.210938 -1.0625 10.734375 -1.0625 C 12.765625 -1.0625 14.453125 -1.601562 15.796875 -2.6875 Z M 15.796875 -8.8125 "/></g></g></g><g fill="#000000" fill-opacity="1"><g transform="translate(160.653134, 23.5898)"><g><path d="M 14.296875 -13.25 L 14.296875 0 L 13.078125 0 L 13.078125 -2.84375 C 12.640625 -1.914062 11.988281 -1.191406 11.125 -0.671875 C 10.257812 -0.148438 9.242188 0.109375 8.078125 0.109375 C 6.347656 0.109375 4.992188 -0.375 4.015625 -1.34375 C 3.035156 -2.3125 2.546875 -3.703125 2.546875 -5.515625 L 2.546875 -13.25 L 3.8125 -13.25 L 3.8125 -5.609375 C 3.8125 -4.117188 4.191406 -2.984375 4.953125 -2.203125 C 5.710938 -1.429688 6.785156 -1.046875 8.171875 -1.046875 C 9.660156 -1.046875 10.84375 -1.507812 11.71875 -2.4375 C 12.59375 -3.363281 13.03125 -4.617188 13.03125 -6.203125 L 13.03125 -13.25 Z M 14.296875 -13.25 "/></g></g></g><g fill="#000000" fill-opacity="1"><g transform="translate(177.63277, 23.5898)"><g><path d="M 7.15625 -13.359375 C 8.800781 -13.359375 10.0625 -12.9375 10.9375 -12.09375 C 11.820312 -11.257812 12.265625 -10.03125 12.265625 -8.40625 L 12.265625 0 L 11.046875 0 L 11.046875 -2.359375 C 10.617188 -1.578125 10 -0.96875 9.1875 -0.53125 C 8.375 -0.101562 7.398438 0.109375 6.265625 0.109375 C 4.796875 0.109375 3.632812 -0.238281 2.78125 -0.9375 C 1.925781 -1.632812 1.5 -2.550781 1.5 -3.6875 C 1.5 -4.78125 1.890625 -5.671875 2.671875 -6.359375 C 3.460938 -7.046875 4.722656 -7.390625 6.453125 -7.390625 L 11 -7.390625 L 11 -8.453125 C 11 -9.691406 10.660156 -10.628906 9.984375 -11.265625 C 9.316406 -11.910156 8.34375 -12.234375 7.0625 -12.234375 C 6.175781 -12.234375 5.332031 -12.082031 4.53125 -11.78125 C 3.726562 -11.476562 3.046875 -11.070312 2.484375 -10.5625 L 1.859375 -11.484375 C 2.515625 -12.066406 3.304688 -12.523438 4.234375 -12.859375 C 5.171875 -13.191406 6.144531 -13.359375 7.15625 -13.359375 Z M 6.453125 -0.9375 C 7.546875 -0.9375 8.476562 -1.191406 9.25 -1.703125 C 10.019531 -2.210938 10.601562 -2.945312 11 -3.90625 L 11 -6.40625 L 6.46875 -6.40625 C 5.164062 -6.40625 4.222656 -6.164062 3.640625 -5.6875 C 3.054688 -5.21875 2.765625 -4.566406 2.765625 -3.734375 C 2.765625 -2.867188 3.085938 -2.1875 3.734375 -1.6875 C 4.378906 -1.1875 5.285156 -0.9375 6.453125 -0.9375 Z M 6.453125 -0.9375 "/></g></g></g><g fill="#000000" fill-opacity="1"><g transform="translate(192.429671, 23.5898)"><g><path d="M 3.90625 -10.359375 C 4.3125 -11.328125 4.945312 -12.066406 5.8125 -12.578125 C 6.675781 -13.097656 7.726562 -13.359375 8.96875 -13.359375 L 8.96875 -12.109375 L 8.65625 -12.140625 C 7.1875 -12.140625 6.035156 -11.675781 5.203125 -10.75 C 4.378906 -9.832031 3.96875 -8.550781 3.96875 -6.90625 L 3.96875 0 L 2.6875 0 L 2.6875 -13.25 L 3.90625 -13.25 Z M 3.90625 -10.359375 "/></g></g></g><g fill="#000000" fill-opacity="1"><g transform="translate(202.429632, 23.5898)"><g><path d="M 14.46875 -18.84375 L 14.46875 0 L 13.234375 0 L 13.234375 -3.125 C 12.703125 -2.09375 11.960938 -1.296875 11.015625 -0.734375 C 10.066406 -0.171875 8.992188 0.109375 7.796875 0.109375 C 6.554688 0.109375 5.4375 -0.175781 4.4375 -0.75 C 3.445312 -1.332031 2.664062 -2.128906 2.09375 -3.140625 C 1.53125 -4.160156 1.25 -5.320312 1.25 -6.625 C 1.25 -7.925781 1.53125 -9.085938 2.09375 -10.109375 C 2.664062 -11.140625 3.445312 -11.9375 4.4375 -12.5 C 5.4375 -13.070312 6.554688 -13.359375 7.796875 -13.359375 C 8.984375 -13.359375 10.046875 -13.078125 10.984375 -12.515625 C 11.921875 -11.960938 12.660156 -11.1875 13.203125 -10.1875 L 13.203125 -18.84375 Z M 7.875 -1.046875 C 8.882812 -1.046875 9.789062 -1.28125 10.59375 -1.75 C 11.40625 -2.226562 12.039062 -2.890625 12.5 -3.734375 C 12.96875 -4.578125 13.203125 -5.539062 13.203125 -6.625 C 13.203125 -7.707031 12.96875 -8.671875 12.5 -9.515625 C 12.039062 -10.367188 11.40625 -11.03125 10.59375 -11.5 C 9.789062 -11.976562 8.882812 -12.21875 7.875 -12.21875 C 6.851562 -12.21875 5.941406 -11.976562 5.140625 -11.5 C 4.335938 -11.03125 3.703125 -10.367188 3.234375 -9.515625 C 2.773438 -8.671875 2.546875 -7.707031 2.546875 -6.625 C 2.546875 -5.539062 2.773438 -4.578125 3.234375 -3.734375 C 3.703125 -2.890625 4.335938 -2.226562 5.140625 -1.75 C 5.941406 -1.28125 6.851562 -1.046875 7.875 -1.046875 Z M 7.875 -1.046875 "/></g></g></g></svg>