<svg xmlns="http://www.w3.org/2000/svg" xmlns:xlink="http://www.w3.org/1999/xlink" width="500" zoomAndPan="magnify" viewBox="0 0 375 374.999991" height="500" preserveAspectRatio="xMidYMid meet" version="1.0"><defs><clipPath id="14cac831a8"><path d="M 102 200 L 322 200 L 322 347.199219 L 102 347.199219 Z M 102 200 " clip-rule="nonzero"/></clipPath><clipPath id="2b5e5d5501"><path d="M 0 27.890625 L 374.417969 27.890625 L 374.417969 264 L 0 264 Z M 0 27.890625 " clip-rule="nonzero"/></clipPath><clipPath id="1936c41475"><path d="M 62 27.890625 L 339 27.890625 L 339 239 L 62 239 Z M 62 27.890625 " clip-rule="nonzero"/></clipPath><clipPath id="3a76dad4bb"><path d="M 61.007812 52.492188 L 313.859375 52.492188 L 313.859375 347.488281 L 61.007812 347.488281 Z M 61.007812 52.492188 " clip-rule="nonzero"/></clipPath></defs><g clip-path="url(#14cac831a8)"><path fill="#588bf9" d="M 153.796875 253.546875 C 136.0625 253.546875 118.839844 252.148438 102.378906 249.519531 C 106.21875 255.921875 110.3125 262.179688 114.648438 268.265625 C 137.109375 299.785156 166.097656 326.828125 200.308594 347.117188 C 257.109375 313.429688 299.527344 261.117188 321.550781 200.605469 C 282.960938 232.789062 222.175781 253.546875 153.796875 253.546875 " fill-opacity="1" fill-rule="nonzero"/></g><path fill="#588bf9" d="M 171.289062 261.804688 C 158.886719 261.804688 146.839844 260.824219 135.332031 258.984375 C 138.015625 263.464844 140.878906 267.84375 143.914062 272.097656 C 159.617188 294.140625 179.890625 313.050781 203.816406 327.238281 C 243.535156 303.679688 273.195312 267.101562 288.597656 224.78125 C 261.609375 247.289062 219.105469 261.804688 171.289062 261.804688 " fill-opacity="1" fill-rule="nonzero"/><g clip-path="url(#2b5e5d5501)"><path fill="#588bf9" d="M 304.144531 27.910156 C 333.855469 51.144531 351.683594 80.820312 351.683594 113.15625 C 351.683594 187.636719 257.144531 248.015625 140.527344 248.015625 C 86.625 248.015625 37.445312 235.117188 0.132812 213.890625 C 38.855469 244.167969 97.765625 263.5 163.75 263.5 C 280.367188 263.5 374.902344 203.121094 374.902344 128.640625 C 374.902344 88.585938 347.558594 52.609375 304.144531 27.910156 " fill-opacity="1" fill-rule="nonzero"/></g><g clip-path="url(#1936c41475)"><path fill="#588bf9" d="M 130.574219 238.066406 C 232.363281 238.066406 317.328125 192.0625 337.289062 130.835938 C 338.015625 123.179688 338.429688 115.464844 338.519531 107.703125 L 287.265625 78.117188 L 200.308594 27.910156 L 62.097656 107.703125 C 62.625 153.132812 74.191406 197.074219 94.835938 236.132812 C 106.453125 237.402344 118.390625 238.066406 130.574219 238.066406 " fill-opacity="1" fill-rule="nonzero"/></g><path fill="#588bf9" d="M 145.523438 224.78125 C 225.492188 224.78125 292.242188 188.640625 307.925781 140.542969 C 308.492188 134.527344 308.820312 128.464844 308.890625 122.371094 L 268.628906 99.125 L 200.308594 59.675781 L 91.726562 122.371094 C 92.140625 158.058594 101.230469 192.578125 117.449219 223.261719 C 126.574219 224.257812 135.953125 224.78125 145.523438 224.78125 " fill-opacity="1" fill-rule="nonzero"/><g clip-path="url(#3a76dad4bb)"><path fill="#ffffff" d="M 164.660156 103.722656 C 164.660156 122.960938 178.589844 138.558594 195.769531 138.558594 C 212.953125 138.558594 226.882812 122.960938 226.882812 103.722656 C 226.882812 84.476562 212.953125 68.878906 195.769531 68.878906 C 178.589844 68.878906 164.660156 84.476562 164.660156 103.722656 Z M 89.113281 227.488281 C 89.441406 208.078125 120.070312 180.988281 133.609375 173.3125 C 157.632812 159.90625 184.625 165.085938 209.890625 155.65625 C 232.839844 147.058594 249.929688 131.152344 266.769531 115.257812 C 276.511719 106.011719 301.445312 69.125 302.679688 52.484375 L 304.414062 52.484375 L 305.488281 61.171875 L 305.324219 67 C 305.324219 124.410156 229.703125 198 229.703125 223.605469 L 229.703125 229.429688 C 229.703125 237.570312 238.703125 244.039062 246.214844 244.039062 L 248.855469 244.039062 C 268.503906 244.039062 313.082031 212.605469 313.082031 244.964844 C 313.082031 269.28125 284.1875 333.898438 274.035156 347.117188 L 278.988281 304.40625 L 278.328125 293.589844 C 278.328125 278.433594 265.613281 269.28125 252.324219 269.28125 C 203.945312 269.28125 152.511719 340.277344 85.5625 340.277344 L 73.425781 340.277344 L 61.125 338.523438 L 61.289062 337.320312 C 78.710938 336.953125 123.949219 307.738281 134.847656 297.289062 C 150.863281 281.847656 176.785156 254.300781 176.785156 222.589844 C 176.785156 196.609375 154.992188 189.953125 132.699219 195.597656 C 123.125 198 115.28125 202.992188 107.851562 208.628906 C 100.007812 214.453125 94.726562 223.238281 89.113281 227.488281 " fill-opacity="1" fill-rule="evenodd"/></g></svg>